<svg width="32" height="32" viewBox="0 0 32 32" fill="none" xmlns="http://www.w3.org/2000/svg">
<path d="M25.4125 9.41249C26.1938 8.63124 26.1938 7.36249 25.4125 6.58124C24.6313 5.79999 23.3625 5.79999 22.5813 6.58124L16 13.1687L9.41255 6.58749C8.6313 5.80624 7.36255 5.80624 6.5813 6.58749C5.80005 7.36874 5.80005 8.63749 6.5813 9.41874L13.1688 16L6.58755 22.5875C5.8063 23.3687 5.8063 24.6375 6.58755 25.4187C7.3688 26.2 8.63755 26.2 9.4188 25.4187L16 18.8312L22.5875 25.4125C23.3688 26.1937 24.6376 26.1937 25.4188 25.4125C26.2001 24.6312 26.2001 23.3625 25.4188 22.5812L18.8313 16L25.4125 9.41249Z" fill="white"/>
</svg>
