<svg width="22" height="22" viewBox="0 0 22 22" fill="none" xmlns="http://www.w3.org/2000/svg">
<path d="M12.2042 1.08337C11.9833 0.625041 11.5167 0.333374 11.0042 0.333374C10.4917 0.333374 10.0292 0.625041 9.80417 1.08337L7.125 6.59587L1.14167 7.47921C0.641667 7.55421 0.225 7.90421 0.0708333 8.38337C-0.0833333 8.86254 0.0416665 9.39171 0.4 9.74587L4.74167 14.0417L3.71667 20.1125C3.63333 20.6125 3.84167 21.1209 4.25417 21.4167C4.66667 21.7125 5.2125 21.75 5.6625 21.5125L11.0083 18.6584L16.3542 21.5125C16.8042 21.75 17.35 21.7167 17.7625 21.4167C18.175 21.1167 18.3833 20.6125 18.3 20.1125L17.2708 14.0417L21.6125 9.74587C21.9708 9.39171 22.1 8.86254 21.9417 8.38337C21.7833 7.90421 21.3708 7.55421 20.8708 7.47921L14.8833 6.59587L12.2042 1.08337Z" fill="#F97316"/>
</svg>
