<svg width="16" height="11" viewBox="0 0 16 11" fill="none" xmlns="http://www.w3.org/2000/svg">
<path d="M0 1.77778C0 0.797222 0.797222 0 1.77778 0H8.88889C9.86944 0 10.6667 0.797222 10.6667 1.77778V8.88889C10.6667 9.86944 9.86944 10.6667 8.88889 10.6667H1.77778C0.797222 10.6667 0 9.86944 0 8.88889V1.77778ZM15.5306 0.994445C15.8194 1.15 16 1.45 16 1.77778V8.88889C16 9.21667 15.8194 9.51667 15.5306 9.67222C15.2417 9.82778 14.8917 9.81111 14.6167 9.62778L11.95 7.85L11.5556 7.58611V7.11111V3.55556V3.08056L11.95 2.81667L14.6167 1.03889C14.8889 0.858333 15.2389 0.838889 15.5306 0.994445Z" fill="#71717A"/>
</svg>
