<svg width="16" height="15" viewBox="0 0 16 15" fill="none" xmlns="http://www.w3.org/2000/svg">
<path d="M15.9944 7.48614C15.9944 7.98614 15.5778 8.37781 15.1056 8.37781H14.2167L14.2361 12.8278C14.2361 12.9028 14.2306 12.9778 14.2222 13.0528V13.5C14.2222 14.1139 13.725 14.6111 13.1111 14.6111H12.6667C12.6361 14.6111 12.6056 14.6111 12.575 14.6084C12.5361 14.6111 12.4972 14.6111 12.4583 14.6111H11.5556H10.8889C10.275 14.6111 9.77778 14.1139 9.77778 13.5V12.8334V11.0556C9.77778 10.5639 9.38056 10.1667 8.88889 10.1667H7.11111C6.61944 10.1667 6.22222 10.5639 6.22222 11.0556V12.8334V13.5C6.22222 14.1139 5.725 14.6111 5.11111 14.6111H4.44444H3.55833C3.51667 14.6111 3.475 14.6084 3.43333 14.6056C3.4 14.6084 3.36667 14.6111 3.33333 14.6111H2.88889C2.275 14.6111 1.77778 14.1139 1.77778 13.5V10.3889C1.77778 10.3639 1.77778 10.3361 1.78056 10.3111V8.37781H0.888889C0.388889 8.37781 0 7.98892 0 7.48614C0 7.23614 0.0833333 7.01392 0.277778 6.81947L7.4 0.611138C7.59444 0.416694 7.81667 0.388916 8.01111 0.388916C8.20556 0.388916 8.42778 0.444472 8.59444 0.58336L15.6889 6.81947C15.9111 7.01392 16.0222 7.23614 15.9944 7.48614Z" fill="#FF9500"/>
</svg>
