<svg width="20" height="20" viewBox="0 0 20 20" fill="none" xmlns="http://www.w3.org/2000/svg">
<path d="M18.75 2.5C18.75 3.19141 18.1914 3.75 17.5 3.75H8.75C8.05859 3.75 7.5 3.19141 7.5 2.5C7.5 1.80859 8.05859 1.25 8.75 1.25H17.5C18.1914 1.25 18.75 1.80859 18.75 2.5ZM18.75 12.5C18.75 13.1914 18.1914 13.75 17.5 13.75H8.75C8.05859 13.75 7.5 13.1914 7.5 12.5C7.5 11.8086 8.05859 11.25 8.75 11.25H17.5C18.1914 11.25 18.75 11.8086 18.75 12.5ZM1.25 7.5C1.25 6.80859 1.80859 6.25 2.5 6.25H17.5C18.1914 6.25 18.75 6.80859 18.75 7.5C18.75 8.19141 18.1914 8.75 17.5 8.75H2.5C1.80859 8.75 1.25 8.19141 1.25 7.5ZM18.75 17.5C18.75 18.1914 18.1914 18.75 17.5 18.75H2.5C1.80859 18.75 1.25 18.1914 1.25 17.5C1.25 16.8086 1.80859 16.25 2.5 16.25H17.5C18.1914 16.25 18.75 16.8086 18.75 17.5Z" fill="white"/>
</svg>
