<svg width="22" height="19" viewBox="0 0 22 19" fill="none" xmlns="http://www.w3.org/2000/svg">
<path d="M0.209229 3.24919C0.209229 1.84188 1.41897 0.697693 2.9069 0.697693H19.0929C20.5809 0.697693 21.7906 1.84188 21.7906 3.24919V16.0067C21.7906 17.414 20.5809 18.5582 19.0929 18.5582H2.9069C1.41897 18.5582 0.209229 17.414 0.209229 16.0067V3.24919ZM2.23248 14.093V15.3688C2.23248 15.7196 2.53597 16.0067 2.9069 16.0067H4.25574C4.62667 16.0067 4.93016 15.7196 4.93016 15.3688V14.093C4.93016 13.7422 4.62667 13.4552 4.25574 13.4552H2.9069C2.53597 13.4552 2.23248 13.7422 2.23248 14.093ZM17.7441 13.4552C17.3732 13.4552 17.0697 13.7422 17.0697 14.093V15.3688C17.0697 15.7196 17.3732 16.0067 17.7441 16.0067H19.0929C19.4639 16.0067 19.7674 15.7196 19.7674 15.3688V14.093C19.7674 13.7422 19.4639 13.4552 19.0929 13.4552H17.7441ZM2.23248 8.99005V10.2658C2.23248 10.6166 2.53597 10.9037 2.9069 10.9037H4.25574C4.62667 10.9037 4.93016 10.6166 4.93016 10.2658V8.99005C4.93016 8.63922 4.62667 8.35218 4.25574 8.35218H2.9069C2.53597 8.35218 2.23248 8.63922 2.23248 8.99005ZM17.7441 8.35218C17.3732 8.35218 17.0697 8.63922 17.0697 8.99005V10.2658C17.0697 10.6166 17.3732 10.9037 17.7441 10.9037H19.0929C19.4639 10.9037 19.7674 10.6166 19.7674 10.2658V8.99005C19.7674 8.63922 19.4639 8.35218 19.0929 8.35218H17.7441ZM2.23248 3.88706V5.16281C2.23248 5.51364 2.53597 5.80068 2.9069 5.80068H4.25574C4.62667 5.80068 4.93016 5.51364 4.93016 5.16281V3.88706C4.93016 3.53623 4.62667 3.24919 4.25574 3.24919H2.9069C2.53597 3.24919 2.23248 3.53623 2.23248 3.88706ZM17.7441 3.24919C17.3732 3.24919 17.0697 3.53623 17.0697 3.88706V5.16281C17.0697 5.51364 17.3732 5.80068 17.7441 5.80068H19.0929C19.4639 5.80068 19.7674 5.51364 19.7674 5.16281V3.88706C19.7674 3.53623 19.4639 3.24919 19.0929 3.24919H17.7441ZM6.95341 4.52494V7.07643C6.95341 7.78208 7.55618 8.35218 8.30225 8.35218H13.6976C14.4437 8.35218 15.0464 7.78208 15.0464 7.07643V4.52494C15.0464 3.81929 14.4437 3.24919 13.6976 3.24919H8.30225C7.55618 3.24919 6.95341 3.81929 6.95341 4.52494ZM8.30225 10.9037C7.55618 10.9037 6.95341 11.4738 6.95341 12.1794V14.7309C6.95341 15.4366 7.55618 16.0067 8.30225 16.0067H13.6976C14.4437 16.0067 15.0464 15.4366 15.0464 14.7309V12.1794C15.0464 11.4738 14.4437 10.9037 13.6976 10.9037H8.30225Z" fill="white"/>
</svg>
