<svg width="22" height="22" viewBox="0 0 22 22" fill="none" xmlns="http://www.w3.org/2000/svg">
<path d="M12.2042 1.08331C11.9833 0.62498 11.5167 0.333313 11.0042 0.333313C10.4917 0.333313 10.0292 0.62498 9.80417 1.08331L7.125 6.59581L1.14167 7.47915C0.641667 7.55415 0.225 7.90415 0.0708333 8.38331C-0.0833333 8.86248 0.0416665 9.39165 0.4 9.74581L4.74167 14.0416L3.71667 20.1125C3.63333 20.6125 3.84167 21.1208 4.25417 21.4166C4.66667 21.7125 5.2125 21.75 5.6625 21.5125L11.0083 18.6583L16.3542 21.5125C16.8042 21.75 17.35 21.7166 17.7625 21.4166C18.175 21.1166 18.3833 20.6125 18.3 20.1125L17.2708 14.0416L21.6125 9.74581C21.9708 9.39165 22.1 8.86248 21.9417 8.38331C21.7833 7.90415 21.3708 7.55415 20.8708 7.47915L14.8833 6.59581L12.2042 1.08331Z" fill="#D1D5DB"/>
</svg>
