<svg width="16" height="14" viewBox="0 0 16 14" fill="none" xmlns="http://www.w3.org/2000/svg">
<path d="M1.6 2.19998V9.39998H14.4V2.19998H1.6ZM0 2.19998C0 1.31748 0.7175 0.599976 1.6 0.599976H14.4C15.2825 0.599976 16 1.31748 16 2.19998V9.39998C16 10.2825 15.2825 11 14.4 11H1.6C0.7175 11 0 10.2825 0 9.39998V2.19998ZM3.2 11.8H12.8C13.2425 11.8 13.6 12.1575 13.6 12.6C13.6 13.0425 13.2425 13.4 12.8 13.4H3.2C2.7575 13.4 2.4 13.0425 2.4 12.6C2.4 12.1575 2.7575 11.8 3.2 11.8Z" fill="#71717A"/>
</svg>
